# xmcd
#
# Track frame offsets:
#	150
#	16740
#	30890
#	47440
#	62565
#	76933
#	91550
#	108333
#	123030
#	138408
#	152293
#	165925
#
# Disc length: 2415 seconds
#
# Revision: 3
# Processed by: cddbd v1.5.1PL0 Copyright (c) Steve Scherf et al.
# Submitted via: dBpowerAMP V4.0
#
DISCID=6c096d0c
DTITLE=Lee Greenwood - The Best Of Lee Greenwood, 20th Century Masters The Millennium Collection
DYEAR=2002
DGENRE=Country
TTITLE0=Ring On Her Fingers, Time On Her Hands
TTITLE1=I.O.U.
TTITLE2=Somebody's Gonna Love You
TTITLE3=Going, Going, Gone
TTITLE4=God Bless The U.S.A
TTITLE5=To Me - with Barbara Mandrell
TTITLE6=Fool's Gold
TTITLE7=Dixie Road
TTITLE8=I Don't Mind The Thorns (If You're the Rose)
TTITLE9=Don't Underestimate My Love For You
TTITLE10=Hearts Aren't Made To Break (They're Made To Love)
TTITLE11=Mornin' Ride
EXTD=
EXTT0=
EXTT1=
EXTT2=
EXTT3=
EXTT4=
EXTT5=
EXTT6=
EXTT7=
EXTT8=
EXTT9=
EXTT10=
EXTT11=
PLAYORDER=
